<svg width="38" height="40" viewBox="0 0 38 40" fill="none" xmlns="http://www.w3.org/2000/svg">
<path d="M19 2.25C9.16275 2.25 1.1875 10.645 1.1875 21C1.1875 31.355 9.16275 39.75 19 39.75C28.8372 39.75 36.8125 31.355 36.8125 21C36.8125 10.645 28.8372 2.25 19 2.25ZM2.82269 23.3044L7.90934 24.6369C7.88737 24.8894 7.866 25.1425 7.866 25.4194C7.86415 27.4795 8.3559 29.5068 9.29575 31.3137L6.73431 32.3275C4.61401 29.7914 3.25313 26.6522 2.82269 23.3044ZM19 38.1875C14.9316 38.1875 11.2094 36.61 8.34694 34.0087L10.4702 33.1556C12.5139 35.7962 15.5776 37.4794 19 37.4794C22.4224 37.4794 25.4861 35.7962 27.5304 33.1556L29.6537 34.0087C26.7918 36.6094 23.0696 38.1875 19 38.1875ZM9.35097 25.4188C9.35097 21.7994 11.5692 21.0725 15.1477 21.0725C15.8038 21.0725 16.4688 21.0963 17.1202 21.1194C18.373 21.1656 19.627 21.1656 20.8798 21.1194C21.5329 21.0963 22.1973 21.0725 22.8522 21.0725C26.432 21.0725 28.6496 21.7994 28.6496 25.4188C28.6496 31.2075 24.3206 35.9169 19 35.9169C13.6794 35.9169 9.35097 31.2075 9.35097 25.4188ZM31.2657 32.3269L28.7043 31.3131C29.6441 29.5061 30.1358 27.4788 30.134 25.4188C30.134 25.1419 30.1132 24.8888 30.0912 24.6362L35.1773 23.3038C34.7479 26.6519 33.3869 29.7914 31.2657 32.3269ZM29.567 22.52C28.1823 19.52 24.5907 19.5106 22.8522 19.5106C22.1807 19.5106 21.4991 19.5344 20.8299 19.5588C19.6108 19.6038 18.3904 19.6038 17.1713 19.5588C16.4971 19.5305 15.8225 19.5144 15.1477 19.5106C13.4092 19.5106 9.81825 19.5206 8.43363 22.52L2.67306 21.0212L2.67188 21C2.67188 17.3069 3.78813 13.8844 5.67863 11.0794C5.89653 11.3931 6.25753 11.67 6.41012 11.5294C7.35929 10.6859 8.47344 10.0732 9.67325 9.73473C10.8731 9.39627 12.129 9.34046 13.3517 9.57125C13.696 9.64187 14 8.30812 13.5826 8.22375C11.2569 7.78924 8.86042 8.25925 6.83941 9.54625C9.83191 6.03 14.1734 3.8125 19 3.8125C23.9133 3.8125 28.3237 6.11188 31.3191 9.73812C29.2671 8.3765 26.8062 7.86991 24.418 8.3175C24.0006 8.40188 24.3034 9.73625 24.6478 9.665C27.1225 9.1975 29.6691 9.915 31.5893 11.6231C31.7502 11.77 32.1421 11.4594 32.354 11.1281C34.292 14.0155 35.3311 17.4647 35.3281 21V21.0206L29.567 22.52Z" fill="#DC1E1E"/>
<path d="M22.018 12.5331C21.5644 12.6981 21.2224 12.7181 21.2806 12.9931C22.474 18.4756 27.3398 19.8469 30.9789 15.7287C31.16 15.5206 30.8732 15.3237 30.5591 14.94C27.6248 16.2619 23.753 14.9706 22.018 12.5331Z" fill="#DC1E1E"/>
<path d="M15.9832 12.5319C14.0707 15.2194 10.1038 16.1394 7.44325 14.9413C7.12916 15.3231 6.84119 15.5206 7.02228 15.7288C10.6614 19.8488 15.526 18.4756 16.7218 12.9931C16.7788 12.7181 16.438 12.6975 15.9832 12.5319Z" fill="#DC1E1E"/>
</svg>
